HIERARCHY
ROOT hip
{
  OFFSET 50.5348 84.458 236.423
  CHANNELS 6 Xposition Yposition Zposition Zrotation Xrotation Yrotation
  JOINT abdomen
  {
    OFFSET 0 20.6881 -0.73152
    CHANNELS 3 Zrotation Xrotation Yrotation
    JOINT chest
    {
      OFFSET 0 11.7043 -0.48768
      CHANNELS 3 Zrotation Xrotation Yrotation
      JOINT neck
      {
        OFFSET 0 22.1894 -2.19456
        CHANNELS 3 Zrotation Xrotation Yrotation
        JOINT head
        {
          OFFSET -0.24384 7.07133 1.2192
          CHANNELS 3 Zrotation Xrotation Yrotation
          JOINT leftEye
          {
            OFFSET 4.14528 8.04674 8.04672
            CHANNELS 3 Zrotation Xrotation Yrotation
            End Site
            {
              OFFSET 1 0 0
            }
          }
          JOINT rightEye
          {
            OFFSET -3.6576 8.04674 8.04672
            CHANNELS 3 Zrotation Xrotation Yrotation
            End Site
            {
              OFFSET 1 0 0
            }
          }
        }
      }
      JOINT rCollar
      {
        OFFSET -2.68224 19.2634 -4.8768
        CHANNELS 3 Zrotation Xrotation Yrotation
        JOINT rShldr
        {
          OFFSET -8.77824 -1.95073 1.46304
          CHANNELS 3 Zrotation Xrotation Yrotation
          JOINT rForeArm
          {
            OFFSET -28.1742 -1.7115 0.48768
            CHANNELS 3 Zrotation Xrotation Yrotation
            JOINT rHand
            {
              OFFSET -22.5879 0.773209 7.07136
              CHANNELS 3 Zrotation Xrotation Yrotation
              JOINT rThumb1
              {
                OFFSET -1.2192 -0.487915 3.41376
                CHANNELS 3 Zrotation Xrotation Yrotation
                JOINT rThumb2
                {
                  OFFSET -3.37035 -0.52449 3.41376
                  CHANNELS 3 Zrotation Xrotation Yrotation
                  End Site
                  {
                    OFFSET -1.78271 -1.18214 1.43049
                  }
                }
              }
              JOINT rIndex1
              {
                OFFSET -7.75947 0.938293 5.60832
                CHANNELS 3 Zrotation Xrotation Yrotation
                JOINT rIndex2
                {
                  OFFSET -2.54057 -0.884171 1.56538
                  CHANNELS 3 Zrotation Xrotation Yrotation
                  End Site
                  {
                    OFFSET -1.62519 -0.234802 1.16502
                  }
                }
              }
              JOINT rMid1
              {
                OFFSET -8.24714 1.18213 3.41376
                CHANNELS 3 Zrotation Xrotation Yrotation
                JOINT rMid2
                {
                  OFFSET -3.10165 -0.590103 1.0647
                  CHANNELS 3 Zrotation Xrotation Yrotation
                  End Site
                  {
                    OFFSET -2.48547 -0.328903 0.83742
                  }
                }
              }
              JOINT rRing1
              {
                OFFSET -8.82822 0.546677 1.51678
                CHANNELS 3 Zrotation Xrotation Yrotation
                JOINT rRing2
                {
                  OFFSET -2.60934 -0.819778 -0.0198488
                  CHANNELS 3 Zrotation Xrotation Yrotation
                  End Site
                  {
                    OFFSET -2.33842 -0.294052 0.168128
                  }
                }
              }
              JOINT rPinky1
              {
                OFFSET -8.27202 -0.0477905 -0.4584
                CHANNELS 3 Zrotation Xrotation Yrotation
                JOINT rPinky2
                {
                  OFFSET -1.82734 -0.647385 -0.700984
                  CHANNELS 3 Zrotation Xrotation Yrotation
                  End Site
                  {
                    OFFSET -1.69225 -0.51767 -0.607171
                  }
                }
              }
            }
          }
        }
      }
      JOINT lCollar
      {
        OFFSET 2.68224 19.2634 -4.8768
        CHANNELS 3 Zrotation Xrotation Yrotation
        JOINT lShldr
        {
          OFFSET 8.77824 -1.95073 1.46304
          CHANNELS 3 Zrotation Xrotation Yrotation
          JOINT lForeArm
          {
            OFFSET 28.1742 -1.7115 0.48768
            CHANNELS 3 Zrotation Xrotation Yrotation
            JOINT lHand
            {
              OFFSET 22.5879 0.773209 7.07136
              CHANNELS 3 Zrotation Xrotation Yrotation
              JOINT lThumb1
              {
                OFFSET 1.2192 -0.487915 3.41376
                CHANNELS 3 Zrotation Xrotation Yrotation
                JOINT lThumb2
                {
                  OFFSET 3.37035 -0.52449 3.41376
                  CHANNELS 3 Zrotation Xrotation Yrotation
                  End Site
                  {
                    OFFSET 1.78271 -1.18214 1.43049
                  }
                }
              }
              JOINT lIndex1
              {
                OFFSET 7.75947 0.938293 5.60832
                CHANNELS 3 Zrotation Xrotation Yrotation
                JOINT lIndex2
                {
                  OFFSET 2.54057 -0.884171 1.56538
                  CHANNELS 3 Zrotation Xrotation Yrotation
                  End Site
                  {
                    OFFSET 1.62519 -0.234802 1.16502
                  }
                }
              }
              JOINT lMid1
              {
                OFFSET 8.24714 1.18213 3.41376
                CHANNELS 3 Zrotation Xrotation Yrotation
                JOINT lMid2
                {
                  OFFSET 3.10165 -0.590103 1.0647
                  CHANNELS 3 Zrotation Xrotation Yrotation
                  End Site
                  {
                    OFFSET 2.48547 -0.328903 0.83742
                  }
                }
              }
              JOINT lRing1
              {
                OFFSET 8.82822 0.546677 1.51678
                CHANNELS 3 Zrotation Xrotation Yrotation
                JOINT lRing2
                {
                  OFFSET 2.60934 -0.819778 -0.0198488
                  CHANNELS 3 Zrotation Xrotation Yrotation
                  End Site
                  {
                    OFFSET 2.33842 -0.294052 0.168128
                  }
                }
              }
              JOINT lPinky1
              {
                OFFSET 8.27202 -0.0477905 -0.4584
                CHANNELS 3 Zrotation Xrotation Yrotation
                JOINT lPinky2
                {
                  OFFSET 1.82734 -0.647385 -0.700984
                  CHANNELS 3 Zrotation Xrotation Yrotation
                  End Site
                  {
                    OFFSET 1.69225 -0.51767 -0.607171
                  }
                }
              }
            }
          }
        }
      }
    }
  }
  JOINT rButtock
  {
    OFFSET -8.77824 4.35084 1.2192
    CHANNELS 3 Zrotation Xrotation Yrotation
    JOINT rThigh
    {
      OFFSET 0 -1.70687 -2.19456
      CHANNELS 3 Zrotation Xrotation Yrotation
      JOINT rShin
      {
        OFFSET 0 -36.8199 0.73152
        CHANNELS 3 Zrotation Xrotation Yrotation
        JOINT rFoot
        {
          OFFSET 0.73152 -45.1104 -5.12064
          CHANNELS 3 Zrotation Xrotation Yrotation
          End Site
          {
            OFFSET -1.1221 -3.69964 12.103
          }
        }
      }
    }
  }
  JOINT lButtock
  {
    OFFSET 8.77824 4.35084 1.2192
    CHANNELS 3 Zrotation Xrotation Yrotation
    JOINT lThigh
    {
      OFFSET 0 -1.70687 -2.19456
      CHANNELS 3 Zrotation Xrotation Yrotation
      JOINT lShin
      {
        OFFSET 0 -36.8199 0.73152
        CHANNELS 3 Zrotation Xrotation Yrotation
        JOINT lFoot
        {
          OFFSET -0.73152 -45.1104 -5.12064
          CHANNELS 3 Zrotation Xrotation Yrotation
          End Site
          {
            OFFSET 1.1221 -3.69964 12.103
          }
        }
      }
    }
  }
}
MOTION
Frames:	5
Frame Time:	0.00833333
50.5453 85.5269 252.454 -1.77869 0.00595644 0.0336575 2.34101 -0.00222418 0.0637214 0.646596 0.00594983 0.111938 -4.1177e-014 2.38542e-015 6.4605e-016 -1.23686e-013 1.59028e-014 2.05463e-015 -0 0 0 -0 0 0 -2.06748e-014 1.43653e-016 3.97569e-016 -4.31167e-013 2.59662e-015 7.15625e-015 -7.46243e-012 2.32618e-012 2.25819e-013 -8.54024e-011 -1.70652e-012 1.30721e-012 -2.01464e-010 1.34684e-012 3.35867e-012 -3.47938e-010 2.32499e-012 5.79259e-012 -2.0146e-010 1.34657e-012 3.34594e-012 7.73091 5.47488 0.417314 -2.01464e-010 1.34607e-012 3.35867e-012 2.90554 0.965183 0.102902 -2.01455e-010 1.34716e-012 3.34992e-012 10.2786 0.731801 0.0259123 -2.01469e-010 1.35015e-012 3.34912e-012 2.22167 -0.733487 -0.20892 -2.09719e-014 1.39965e-016 1.98785e-016 -4.34196e-013 2.88238e-015 4.96962e-015 -7.46163e-012 -2.12839e-012 2.00375e-013 -8.53955e-011 2.76934e-012 1.33265e-012 -2.01443e-010 1.39153e-012 3.3523e-012 -3.47877e-010 2.4045e-012 5.80531e-012 -2.01447e-010 1.38911e-012 3.36503e-012 -7.73091 5.47488 -0.417314 -2.01441e-010 1.391e-012 3.35549e-012 -2.90554 0.965183 -0.102902 -2.01451e-010 1.39159e-012 3.35708e-012 -10.2786 0.731801 -0.0259123 -2.01436e-010 1.39388e-012 3.3523e-012 -2.22167 -0.733487 0.20892 -2.03217e-016 0 -3.88251e-019 2.2155 -8.02973 -0.23136 0.00607165 8.97368 0.152071 -0.4777 -0.951456 0.0348652 2.03217e-016 0 3.88251e-019 1.35208 -1.92788 -0.00535817 0.00846646 -2.07867 0.069459 0.423849 3.99897 -0.127288 
49.418 84.288 240.269 -1.58607 -0.348923 44.6782 3.60658 0.712312 1.75264 0.123226 -1.9638 0.600519 1.2549 2.81222 3.52723 -0.645799 -0.8692 6.48757 -0 0 0 -0 0 0 -5.55286e-015 -7.80841e-015 1.11616e-013 22.0942 14.2034 -2.94063 -4.89419 -2.37683 7.47088 0.0210194 3.21871 0.44979 -1.93793e-010 3.00101e-010 -7.88441e-011 -3.35485e-010 5.19401e-010 -1.36386e-010 -1.93788e-010 3.001e-010 -7.88523e-011 7.73091 5.47488 0.417314 -1.93793e-010 3.00101e-010 -7.8844e-011 2.90554 0.965183 0.102902 -1.93784e-010 3.00102e-010 -7.88506e-011 10.2786 0.731801 0.0259123 -1.93797e-010 3.00105e-010 -7.88509e-011 2.22167 -0.733487 -0.20892 -5.78636e-015 -7.81363e-015 1.11343e-013 -22.1343 12.0304 1.97392 5.16065 -2.56797 -7.80453 -0.0423392 4.56737 -0.634559 -2.14602e-010 -1.35383e-010 -4.91947e-011 -3.71069e-010 -2.34176e-010 -8.41764e-011 -2.14607e-010 -1.35385e-010 -4.91838e-011 -7.73091 5.47488 -0.417314 -2.146e-010 -1.35386e-010 -4.91961e-011 -2.90554 0.965183 -0.102902 -2.1461e-010 -1.35385e-010 -4.91894e-011 -10.2786 0.731801 -0.0259123 -2.14594e-010 -1.35383e-010 -4.91955e-011 -2.22167 -0.733487 0.20892 -2.03217e-016 0 -3.88251e-019 4.33263 -7.75893 3.66645 0.0468259 14.8932 0.306673 -2.23662 -6.18767 -9.57212 2.03217e-016 0 3.88251e-019 0.0754984 -4.19482 -7.5207 -0.0374091 6.46365 -0.134312 1.1642 -2.34621 4.63454 
49.2311 84.2364 239.877 -1.05412 0.0343971 91.885 4.91758 1.49386 3.54351 -0.402637 -4.03661 1.12121 2.20884 5.73058 7.28661 -1.12362 -1.7309 13.354 -0 0 0 -0 0 0 1.20869e-014 -1.69305e-014 2.47186e-013 47.2384 29.1062 -6.70992 -9.39732 -4.75257 15.4054 -0.0120145 6.60809 0.928261 -2.11209e-010 6.67526e-010 -1.67466e-010 -3.66502e-010 1.15508e-009 -2.89457e-010 -2.11203e-010 6.67525e-010 -1.67469e-010 7.73091 5.47488 0.417314 -2.11209e-010 6.67527e-010 -1.67466e-010 2.90554 0.965183 0.102902 -2.11201e-010 6.67528e-010 -1.6747e-010 10.2786 0.731801 0.0259123 -2.11213e-010 6.67532e-010 -1.6747e-010 2.22167 -0.733487 -0.20892 1.19203e-014 -1.69374e-014 2.46828e-013 -46.5097 24.6893 4.34838 9.8414 -5.10591 -16.0742 0.024229 9.38667 -1.31792 -2.23712e-010 -2.81864e-010 -1.04084e-010 -3.87207e-010 -4.87571e-010 -1.78309e-010 -2.23716e-010 -2.81865e-010 -1.04076e-010 -7.73091 5.47488 -0.417314 -2.2371e-010 -2.81869e-010 -1.04091e-010 -2.90554 0.965183 -0.102902 -2.23719e-010 -2.81867e-010 -1.04078e-010 -10.2786 0.731801 -0.0259123 -2.23703e-010 -2.81865e-010 -1.04086e-010 -2.22167 -0.733487 0.20892 -2.03217e-016 0 -3.88251e-019 6.53402 -7.41181 7.77535 0.0522938 21.1579 0.482672 -5.98203 -11.1497 -20.0106 2.03217e-016 0 3.88251e-019 -1.92684 -6.38654 -15.5441 -0.0180889 15.5008 -0.361631 3.11087 -8.9494 9.81402 
49.228 84.2173 239.776 -1.16762 1.03015 133.955 6.01146 2.1338 5.13363 -0.822267 -5.90138 1.58503 2.72321 8.30821 10.6823 -1.35903 -2.47438 19.4794 -0 0 0 -0 0 0 2.4691e-014 -2.37125e-014 3.34054e-013 71.92 42.0798 -11.5578 -12.8653 -6.64663 22.5531 -0.0903877 9.65372 1.3666 -1.7845e-010 8.97608e-010 -2.4325e-010 -3.10579e-010 1.55355e-009 -4.20744e-010 -1.78445e-010 8.97608e-010 -2.43249e-010 7.73091 5.47488 0.417314 -1.78451e-010 8.9761e-010 -2.43249e-010 2.90554 0.965183 0.102902 -1.78444e-010 8.97611e-010 -2.43252e-010 10.2786 0.731801 0.0259123 -1.78454e-010 8.97615e-010 -2.43251e-010 2.22167 -0.733487 -0.20892 2.45848e-014 -2.37208e-014 3.33631e-013 -69.3787 35.8989 7.15614 13.4346 -7.13338 -23.5834 0.183986 13.6953 -1.95318 -2.4092e-010 -4.08933e-010 -1.54289e-010 -4.17453e-010 -7.07336e-010 -2.6414e-010 -2.40925e-010 -4.08934e-010 -1.54282e-010 -7.73091 5.47488 -0.417314 -2.40918e-010 -4.08941e-010 -1.54299e-010 -2.90554 0.965183 -0.102902 -2.40928e-010 -4.08939e-010 -1.54282e-010 -10.2786 0.731801 -0.0259123 -2.40911e-010 -4.08936e-010 -1.54291e-010 -2.22167 -0.733487 0.20892 -2.03217e-016 0 -3.88251e-019 8.45316 -7.12136 11.4462 0.0208624 26.7312 0.65914 -10.9191 -14.8023 -29.6959 2.03217e-016 0 3.88251e-019 -4.22183 -8.16056 -22.7335 0.065507 23.5472 -0.588181 5.85442 -14.5927 14.6278 
49.3158 84.2187 239.824 -1.82322 1.56162 163.213 6.66006 2.42767 6.21831 -1.04791 -7.24784 1.89985 2.86395 10.1547 13.076 -1.37051 -3.04243 23.7377 -0 0 0 -0 0 0 2.47062e-014 -2.46446e-014 2.99171e-013 91.2035 50.702 -16.648 -15.0057 -7.79526 27.6004 -0.175148 11.8422 1.68867 -2.0257e-011 7.84334e-010 -2.86937e-010 -3.73067e-011 1.35899e-009 -4.97574e-010 -2.02514e-011 7.84334e-010 -2.86934e-010 7.73091 5.47488 0.417314 -2.02577e-011 7.84336e-010 -2.86937e-010 2.90554 0.965183 0.102902 -2.02512e-011 7.84337e-010 -2.86938e-010 10.2786 0.731801 0.0259123 -2.02607e-011 7.84341e-010 -2.86937e-010 2.22167 -0.733487 -0.20892 2.46437e-014 -2.46536e-014 2.98724e-013 -86.3305 43.6508 9.95757 15.6969 -8.40857 -29.0353 0.356226 16.7336 -2.42171 -2.78376e-010 -4.87477e-010 -1.9278e-010 -4.82971e-010 -8.43028e-010 -3.29215e-010 -2.78383e-010 -4.87478e-010 -1.92773e-010 -7.73091 5.47488 -0.417314 -2.78375e-010 -4.87486e-010 -1.92793e-010 -2.90554 0.965183 -0.102902 -2.78383e-010 -4.87484e-010 -1.92773e-010 -10.2786 0.731801 -0.0259123 -2.78367e-010 -4.87481e-010 -1.92783e-010 -2.22167 -0.733487 0.20892 -2.03217e-016 0 -3.88251e-019 9.76493 -7.03313 14.035 -0.0241098 30.5765 0.800562 -15.3161 -16.8985 -36.6853 2.03217e-016 0 3.88251e-019 -6.07868 -9.39587 -27.6899 0.167194 29.1179 -0.766005 8.26202 -18.297 18.0122 
